# xmcd
# 
# Track frame offsets:
#     150
#     18960
#     56150
#     68775
#     81075
#     94650
#     114150
#     140074
#     156074
#     171225
#     190100
#     205294
#     224774
# 
# Disc length: 3997
# 
# Revision: 1
# Processed by: cddbd v1.5.2PL0 Copyright (c) Steve Scherf et al.
# Submitted via: fre:ac v1.1beta1pre4
# 
DISCID=b80f9b0d
DTITLE=Reckless Kelly - Acoustic: Live at Stubb's
DYEAR=2000
DGENRE=Americana
TTITLE0=My Sole Ain't Sold
TTITLE1=Hottest Thing on Town
TTITLE2=Don't Come Back
TTITLE3=Subterranean Homesick Blues
TTITLE4=Wild Western Wildbrown Band
TTITLE5=She Sang the Red River Valley
TTITLE6=Shook Me All Night Long
TTITLE7=You Should Be Gone
TTITLE8=My Baby Worships Me
TTITLE9=The Ballad of Tommy and Maria
TTITLE10=Strung Out and Wound
TTITLE11=Eight More Miles
TTITLE12=Whole Lotta Love
EXTD=
EXTT0=
EXTT1=
EXTT2=
EXTT3=
EXTT4=
EXTT5=
EXTT6=
EXTT7=
EXTT8=
EXTT9=
EXTT10=
EXTT11=
EXTT12=
PLAYORDER=
